<?xml version="1.0" encoding="UTF-8" standalone="no"?>
<!-- Created with Inkscape (http://www.inkscape.org/) -->

<svg
   xmlns:dc="http://purl.org/dc/elements/1.1/"
   xmlns:cc="http://creativecommons.org/ns#"
   xmlns:rdf="http://www.w3.org/1999/02/22-rdf-syntax-ns#"
   xmlns:svg="http://www.w3.org/2000/svg"
   xmlns="http://www.w3.org/2000/svg"
   xmlns:sodipodi="http://sodipodi.sourceforge.net/DTD/sodipodi-0.dtd"
   xmlns:inkscape="http://www.inkscape.org/namespaces/inkscape"
   width="79.874443mm"
   height="48.93047mm"
   viewBox="0 0 283.01969 173.37568"
   id="svg2"
   version="1.1"
   inkscape:version="0.92.2 (5c3e80d, 2017-08-06)"
   sodipodi:docname="microjs-logo.svg">
  <defs
     id="defs4" />
  <sodipodi:namedview
     id="base"
     pagecolor="#ffffff"
     bordercolor="#666666"
     borderopacity="1.0"
     inkscape:pageopacity="0.0"
     inkscape:pageshadow="2"
     inkscape:zoom="1.4"
     inkscape:cx="183.56783"
     inkscape:cy="-8.7568549"
     inkscape:document-units="mm"
     inkscape:current-layer="layer3"
     showgrid="false"
     showguides="true"
     inkscape:guide-bbox="true"
     inkscape:snap-smooth-nodes="true"
     inkscape:window-width="1351"
     inkscape:window-height="958"
     inkscape:window-x="226"
     inkscape:window-y="249"
     inkscape:window-maximized="0"
     units="mm"
     inkscape:snap-text-baseline="true"
     inkscape:object-paths="true"
     inkscape:snap-global="true"
     fit-margin-top="1"
     fit-margin-left="1"
     fit-margin-right="1"
     fit-margin-bottom="1" />
  <metadata
     id="metadata7">
    <rdf:RDF>
      <cc:Work
         rdf:about="">
        <dc:format>image/svg+xml</dc:format>
        <dc:type
           rdf:resource="http://purl.org/dc/dcmitype/StillImage" />
        <dc:title />
      </cc:Work>
    </rdf:RDF>
  </metadata>
  <g
     inkscape:groupmode="layer"
     id="layer3"
     inkscape:label="Layer 3"
     transform="translate(-486.4766,-209.7313)"
     style="display:inline">
    <path
       transform="translate(0,-287.3622)"
       sodipodi:nodetypes="scscscccccccsccccccccs"
       inkscape:connector-curvature="0"
       id="path924-6"
       style="font-style:normal;font-variant:normal;font-weight:bold;font-stretch:normal;font-size:180px;line-height:80.00000119%;font-family:'Open Sans';-inkscape-font-specification:'Open Sans Bold';font-variant-ligatures:normal;font-variant-caps:normal;font-variant-numeric:normal;font-feature-settings:normal;text-align:start;letter-spacing:-9.92511272px;word-spacing:0px;writing-mode:lr-tb;text-anchor:start;fill:#aa0000;fill-opacity:1;stroke:none;stroke-width:1px;stroke-linecap:butt;stroke-linejoin:miter;stroke-opacity:1"
       d="m 521.8069,591.86728 c 0,7.08984 1.5286,12.42187 4.58568,15.99609 3.05709,3.51563 7.85123,5.27344 14.38233,5.27344 8.75445,0 15.1118,-2.51953 19.07216,-7.5586 3.96036,-5.09765 5.94053,-13.38867 5.94053,-24.87304 v -44.32646 h 31.78704 v 96.35771 h -24.07478 v -13.1836 h -6.04474 c -2.91816,4.98047 -6.46163,8.73047 -10.63034,11.25 -4.16888,2.46094 -9.31032,3.69141 -15.42461,3.69141 -4.30773,0 -8.26803,-0.67383 -11.88102,-2.02149 -3.61298,-1.34765 -6.53109,-3.31054 -8.75444,-5.88867 l 0.52103,7.47071 0.52116,4.74609 v 28.125 H 490.01991 V 536.37871 h 31.78699 z" />
    <path
       transform="translate(0,-287.3622)"
       sodipodi:nodetypes="sccscsccsss"
       inkscape:connector-curvature="0"
       id="path926-0"
       style="font-style:normal;font-variant:normal;font-weight:bold;font-stretch:normal;font-size:180px;line-height:80.00000119%;font-family:'Open Sans';-inkscape-font-specification:'Open Sans Bold';font-variant-ligatures:normal;font-variant-caps:normal;font-variant-numeric:normal;font-feature-settings:normal;text-align:start;letter-spacing:-9.92511272px;word-spacing:0px;writing-mode:lr-tb;text-anchor:start;fill:#000000;fill-opacity:1;stroke:none;stroke-width:1px;stroke-linecap:butt;stroke-linejoin:miter;stroke-opacity:1"
       d="m 600.94719,666.92587 h -28.89817 v -22.67578 c 15.21609,-0.17578 20.45635,-0.17578 25.04203,-0.17578 7.08695,0 12.15898,-1.875 15.21609,-5.625 3.05712,-3.69141 4.58567,-9.49219 4.58567,-17.40234 V 500.63681 h 32.30813 v 120.23438 c 0,15 -4.06456,26.42578 -12.19371,34.27734 -8.12914,7.85156 -20.14915,11.77734 -36.06004,11.77734 z" />
    <path
       transform="translate(0,-287.3622)"
       sodipodi:nodetypes="scsccccscccscsccccccsccccs"
       inkscape:connector-curvature="0"
       id="path928-7"
       style="font-style:normal;font-variant:normal;font-weight:bold;font-stretch:normal;font-size:180px;line-height:80.00000119%;font-family:'Open Sans';-inkscape-font-specification:'Open Sans Bold';font-variant-ligatures:normal;font-variant-caps:normal;font-variant-numeric:normal;font-feature-settings:normal;text-align:start;letter-spacing:-9.92511272px;word-spacing:0px;writing-mode:lr-tb;text-anchor:start;fill:#000000;fill-opacity:1;stroke:none;stroke-width:1px;stroke-linecap:butt;stroke-linejoin:miter;stroke-opacity:1"
       d="m 763.5527,595.29501 c 0,11.60157 -4.9678,22.67824 -14.90343,29.35793 -9.86614,6.67969 -23.62343,9.92238 -41.27104,10.01953 h -43.147 v -24.43605 c 45.64827,0 29.20426,-0.0837 45.64827,0 7.08695,0 12.50638,-1.14258 16.25829,-3.42774 3.8214,-2.28515 5.7321,-5.68359 5.7321,-10.19531 0,-2.51953 -0.83377,-4.7461 -2.50129,-6.67969 -1.66751,-1.99219 -4.13404,-3.89648 -7.3996,-5.71289 -3.19607,-1.81641 -9.76191,-4.7168 -19.69754,-8.70117 -9.31031,-3.69141 -16.29303,-7.23633 -20.94818,-10.63476 -4.65515,-3.39844 -8.37232,-7.35352 -11.15151,-11.86524 -2.7792,-4.51172 -4.1688,-9.78516 -4.1688,-15.82031 0,-11.36719 4.55093,-20.30273 13.65279,-26.80664 9.17134,-6.50391 21.81668,-9.75586 37.93601,-9.75586 34.07377,0.0145 -12.30786,0 33.65308,0 v 22.67578 c -47.00314,0 -19.91287,0.0611 -34.69528,0 -6.11423,0 -10.80411,1.20117 -14.06967,3.60352 -3.26556,2.40234 -4.89833,5.5371 -4.89833,9.40429 0,2.40235 0.66006,4.51172 1.98017,6.32813 1.32012,1.75781 3.40451,3.48633 6.25319,5.18554 2.91816,1.64063 9.76192,4.62891 20.5313,8.96485 14.24337,5.74219 24.00529,11.51367 29.28577,17.31445 5.28047,5.74219 7.9207,12.80273 7.9207,21.18164 z" />
  </g>
</svg>
